Coordinates
version=1
nRows=17
nColumns=24
inDegrees=yes

Units are S.I. units (second, meters, Newtons, ...)
If the header above contains a line with 'inDegrees', this indicates whether rotational values are in degrees (yes) or radians (no).

endheader
time	pelvis_tilt	pelvis_list	pelvis_rotation	pelvis_tx	pelvis_ty	pelvis_tz	hip_flexion_r	hip_adduction_r	hip_rotation_r	knee_angle_r	ankle_angle_r	subtalar_angle_r	mtp_angle_r	hip_flexion_l	hip_adduction_l	hip_rotation_l	knee_angle_l	ankle_angle_l	subtalar_angle_l	mtp_angle_l	lumbar_extension	lumbar_bending	lumbar_rotation
      3.40000000	     26.38070580	     -1.76808303	     -6.71847205	      0.00571962	      0.98981607	      0.01260809	    -15.43528847	     -3.86109700	      2.08119668	    -35.90692053	      0.83335661	    -24.60406645	     23.34591847	    -25.06449720	     -0.34056443	    -24.64543679	    -10.12384209	    -10.27726329	      0.29405497	     40.01005749	    -28.93943964	      4.98983465	     28.81612630
      3.40833300	     26.24172695	     -1.86985357	     -6.56941308	      0.00791800	      0.99001475	      0.01217349	    -15.39763205	     -3.69322196	      2.14531104	    -34.66049196	      0.84095962	    -24.09267263	     24.01625278	    -25.08399846	     -0.45885215	    -24.48384018	    -10.06697286	    -10.19143372	      0.25517858	     39.81027891	    -28.88604169	      5.27343092	     28.92968441
      3.41666700	     26.10064227	     -1.95898141	     -6.45033952	      0.00999486	      0.99017359	      0.01182956	    -15.36031588	     -3.53640007	      2.28094689	    -33.41849385	      0.79801779	    -23.52641204	     24.58705960	    -25.06177657	     -0.57035593	    -24.35772292	    -10.09050333	    -10.06884635	      0.22601456	     39.62183552	    -28.84357805	      5.53416024	     29.05259454
      3.42500000	     25.97064930	     -2.04175111	     -6.38796786	      0.01208016	      0.99030239	      0.01156070	    -15.33628737	     -3.41596795	      2.43381701	    -32.20351388	      0.70092089	    -22.87390162	     25.20969139	    -25.08090183	     -0.63879407	    -24.25453813	    -10.05750808	     -9.97037962	      0.20981795	     39.35764840	    -28.80095169	      5.77475575	     29.24360453
      3.43333300	     25.84880911	     -2.11718286	     -6.35589755	      0.01409915	      0.99039954	      0.01135556	    -15.32158737	     -3.31459661	      2.60919014	    -31.02921484	      0.51662073	    -22.17317300	     25.77222839	    -25.09409913	     -0.69229036	    -24.18330481	    -10.05096048	     -9.85289474	      0.15018656	     39.12634763	    -28.76877246	      6.00478019	     29.45412480
      3.44166700	     25.74048504	     -2.18398409	     -6.35822012	      0.01609770	      0.99046873	      0.01121434	    -15.32321450	     -3.23902694	      2.78569839	    -29.91015113	      0.24899568	    -21.42138438	     26.27178505	    -25.12364347	     -0.72031298	    -24.13796937	    -10.03842246	     -9.74908842	      0.02921876	     38.94728849	    -28.74327529	      6.21273364	     29.67455218
      3.45000000	     25.64341830	     -2.23743176	     -6.38473919	      0.01807609	      0.99050560	      0.01112820	    -15.33808689	     -3.19324522	      2.93508405	    -28.85600909	     -0.10365383	    -20.61083493	     26.69369175	    -25.16365263	     -0.72551199	    -24.10895604	    -10.02376839	     -9.65428005	     -0.14369836	     38.82865555	    -28.71956937	      6.39911049	     29.88981789
      3.45833300	     25.56193658	     -2.27713604	     -6.43180397	      0.02004726	      0.99051257	      0.01110086	    -15.37302461	     -3.17674849	      3.03547907	    -27.87585005	     -0.54489990	    -19.74556936	     27.02066967	    -25.22019594	     -0.70914799	    -24.08891203	    -10.00913065	     -9.56685297	     -0.33553369	     38.74651853	    -28.69641484	      6.55785462	     30.08635829
      3.46666700	     25.49542934	     -2.30501519	     -6.49199265	      0.02202546	      0.99048773	      0.01114569	    -15.43048848	     -3.18225427	      3.07041265	    -26.97882611	     -1.06881223	    -18.86328802	     27.22615184	    -25.29199931	     -0.68093745	    -24.07401046	    -10.00268364	     -9.47401872	     -0.50181010	     38.66993196	    -28.66734956	      6.67831861	     30.23756902
      3.47500000	     25.44926350	     -2.31036059	     -6.56949257	      0.02399594	      0.99043313	      0.01122651	    -15.51008737	     -3.22911330	      3.02545627	    -26.17975399	     -1.66572267	    -17.94724885	     27.30761964	    -25.38990765	     -0.61896436	    -24.05064285	     -9.97939842	     -9.39117393	     -0.65021818	     38.58659927	    -28.64463027	      6.76760580	     30.35219993
      3.48333300	     25.42142972	     -2.30111858	     -6.65152367	      0.02597444	      0.99034470	      0.01137330	    -15.61831039	     -3.29770496	      2.90175477	    -25.48096941	     -2.27114341	    -17.04693417	     27.24418955	    -25.50460263	     -0.54532805	    -24.01912866	     -9.96273701	     -9.29966333	     -0.80285395	     38.51351418	    -28.61863171	      6.81708977	     30.41266461
      3.49166700	     25.41182386	     -2.27867664	     -6.73470031	      0.02793156	      0.99022716	      0.01158056	    -15.76072691	     -3.38105697	      2.73397999	    -24.87598598	     -2.82065007	    -16.21892571	     27.04417290	    -25.62600008	     -0.46577394	    -23.98222151	     -9.97105802	     -9.19548518	     -0.96323498	     38.45824798	    -28.59317555	      6.82933941	     30.40636701
      3.50000000	     25.41662976	     -2.21115086	     -6.84389709	      0.02992049	      0.99007292	      0.01186762	    -15.91206988	     -3.52615969	      2.49117509	    -24.41356833	     -3.19299850	    -15.42884677	     26.51004895	    -25.78404035	     -0.32097684	    -23.92092864	     -9.92072532	     -9.13273772	     -1.14986066	     38.40389892	    -28.53653928	      6.74778961	     30.29662047
      3.50833300	     25.42601406	     -2.13802111	     -6.95793939	      0.03187688	      0.98988877	      0.01221299	    -16.09265452	     -3.67287824	      2.28377558	    -24.03019884	     -3.37425136	    -14.79090095	     25.75686622	    -25.93018341	     -0.17858744	    -23.86604313	     -9.90614995	     -9.03885848	     -1.35524523	     38.37222487	    -28.46879702	      6.63344199	     30.09463213
      3.51666700	     25.43148579	     -2.05269544	     -7.10385720	      0.03382598	      0.98967684	      0.01262839	    -16.28150794	     -3.84241502	      2.10953136	    -23.71910075	     -3.40811231	    -14.27483952	     24.90291721	    -26.07555708	     -0.01233389	    -23.83555913	     -9.88455921	     -8.96281287	     -1.56586390	     38.34717423	    -28.38023342	      6.48384335	     29.87214011
      3.52500000	     25.45589182	     -1.98667027	     -7.25905392	      0.03576631	      0.98947529	      0.01306750	    -16.52380405	     -4.00544821	      1.94623865	    -23.40545701	     -3.40560085	    -13.80320691	     24.36534384	    -26.24048742	      0.13762612	    -23.84363808	     -9.87598315	     -8.88840586	     -1.74486055	     38.32390891	    -28.31345870	      6.36303521	     29.73508058
      3.53333300	     25.48073550	     -1.90729978	     -7.41247827	      0.03771535	      0.98927486	      0.01350056	    -16.77916319	     -4.19261316	      1.74839513	    -23.10322809	     -3.33405253	    -13.24001577	     23.95079975	    -26.41701256	      0.30811354	    -23.83577544	     -9.83266474	     -8.81947075	     -1.92528983	     38.31410871	    -28.24737038	      6.25896941	     29.60974756
